<svg xmlns="http://www.w3.org/2000/svg" xmlns:xlink="http://www.w3.org/1999/xlink" version="1.1" id="Layer_1" x="0px" y="0px" width="100px" height="100px" viewBox="0 0 100 100" enable-background="new 0 0 100 100" xml:space="preserve">
<g>
	<path fill="#000000" d="M55.716,7.89c9.374,0,17.146,10.677,13.489,21.2C64.992,41.209,52.717,41.594,52.717,50   c0,8.408,12.275,8.792,16.488,20.911c3.657,10.523-4.115,21.2-13.489,21.2c-5.487,0-5.716,0-5.716,0s-0.229,0-5.716,0   c-9.373,0-17.146-10.677-13.489-21.2C35.008,58.792,47.284,58.408,47.284,50c0-8.406-12.276-8.791-16.489-20.91   c-3.657-10.523,4.116-21.2,13.489-21.2c5.487,0,5.716,0,5.716,0S50.229,7.89,55.716,7.89 M55.716,5H50h-5.716   c-5.26,0-10.384,2.79-13.706,7.464c-3.626,5.099-4.564,11.669-2.512,17.575c2.436,7.006,7.194,10.527,11.018,13.356   c3.489,2.582,5.311,4.049,5.311,6.604c0,2.557-1.821,4.023-5.311,6.605c-3.823,2.829-8.582,6.351-11.018,13.356   c-2.053,5.906-1.114,12.477,2.512,17.575C33.9,92.21,39.024,95,44.284,95H50h5.716c5.261,0,10.385-2.79,13.707-7.463   c3.625-5.099,4.563-11.669,2.511-17.575c-2.436-7.006-7.193-10.527-11.018-13.356c-3.489-2.582-5.311-4.049-5.311-6.605   c0-2.556,1.821-4.022,5.311-6.604c3.824-2.829,8.582-6.351,11.018-13.356c2.053-5.906,1.114-12.477-2.511-17.575   C66.101,7.79,60.977,5,55.716,5L55.716,5z"/>
	<path fill="#000000" d="M68.587,74.035c-2.858,0.59-4.803,0.808-6.455,0.761c-0.034-0.001-0.07-0.002-0.107-0.004   c-0.085-0.003-0.17-0.008-0.255-0.012c-4.946-0.243-10.418-5.342-10.418-10.14v-4.982V50c0-4.819,3.416-7.348,7.033-10.024   c1.739-1.286,3.591-2.659,5.264-4.409c-7.013-1.307-11.356-3.898-16.297-4.803c-4.719-0.863-9.69,0.584-13.201,2.054   c2.112,3.189,4.91,5.269,7.465,7.158c3.617,2.677,7.034,5.205,7.034,10.024v9.658v4.982c0,4.392-2.514,6.288-5.658,6.623   c-0.263,0.014-0.524,0.031-0.783,0.053c-0.05,0.002-0.1,0.007-0.149,0.007c-0.194,0.003-0.386,0.026-0.576,0.061   c-3.714,0.422-7.095,1.663-10.11,2.974c-0.509,3.75,0.409,7.53,2.673,10.714c2.527,3.554,6.355,5.675,10.239,5.675h11.432   c3.886,0,7.713-2.121,10.239-5.675C68.284,81.797,69.193,77.891,68.587,74.035z"/>
</g>
</svg>