<svg xmlns="http://www.w3.org/2000/svg" xmlns:xlink="http://www.w3.org/1999/xlink" version="1.1" id="Your_Icon" x="0px" y="0px" width="100px" height="100px" viewBox="0 0 100 100" enable-background="new 0 0 100 100" xml:space="preserve">
<polygon points="23.588,29.899 24.615,47.617 34.551,52.997 34.356,35.067 72.015,18.158 61.858,15.017 "/>
<path d="M49.45,93.039c-0.419,0-0.837-0.102-1.217-0.307L11.224,72.953c-0.786-0.419-1.297-1.21-1.36-2.097L6.419,22.62  c-0.085-1.189,0.655-2.283,1.792-2.647L48.665,7.084c0.512-0.165,1.059-0.165,1.568,0l40.455,12.888  c1.139,0.364,1.88,1.458,1.794,2.647l-3.445,48.237c-0.062,0.887-0.574,1.678-1.36,2.097L50.667,92.732  C50.287,92.938,49.866,93.039,49.45,93.039L49.45,93.039z M14.917,69.066L49.45,87.523l34.531-18.457l3.2-44.786L49.45,12.258  L11.718,24.28L14.917,69.066L14.917,69.066z"/>
<path d="M49.45,44.801c-0.388,0-0.778-0.087-1.133-0.262L7.862,24.757C6.58,24.131,6.047,22.582,6.674,21.3  c0.627-1.278,2.176-1.813,3.456-1.186L49.45,39.34l39.321-19.226c1.279-0.635,2.828-0.096,3.455,1.186s0.093,2.831-1.188,3.457  L50.584,44.54C50.228,44.714,49.838,44.801,49.45,44.801L49.45,44.801z"/>
<path d="M49.45,93.039c-1.428,0-2.584-1.16-2.584-2.584V42.217c0-1.427,1.157-2.584,2.584-2.584s2.584,1.157,2.584,2.584v48.238  C52.034,91.879,50.878,93.039,49.45,93.039L49.45,93.039z"/>
</svg>