<?xml version="1.0" encoding="utf-8"?>
<!-- Generator: Adobe Illustrator 15.1.0, SVG Export Plug-In . SVG Version: 6.00 Build 0)  -->
<!DOCTYPE svg PUBLIC "-//W3C//DTD SVG 1.1//EN" "http://www.w3.org/Graphics/SVG/1.1/DTD/svg11.dtd">
<svg version="1.1" id="Layer_1" xmlns="http://www.w3.org/2000/svg" xmlns:xlink="http://www.w3.org/1999/xlink" x="0px" y="0px"
	 width="280px" height="106px" viewBox="0 0 280 106" enable-background="new 0 0 280 106" xml:space="preserve">
<g>
	<path fill="#FBB03B" d="M41.285,0.227v15.87c-13.587,0.993-23.742,11.76-23.742,27.63c0,15.868,10.155,26.78,23.742,27.77v15.73
		c-23.454-1.135-41.761-18.563-41.761-43.5S17.831,1.36,41.285,0.227z M46.002,16.097V0.227c23.455,1.134,41.905,18.563,41.905,43.5
		c0,18.702-10.442,33.154-25.457,39.674l16.16,22.526H58.159L46.002,88.36V71.497c13.729-0.99,23.742-11.902,23.742-27.77
		C69.745,27.857,59.731,17.09,46.002,16.097z"/>
	<path fill="#FBB03B" d="M129.231,21.198c0.857,0,1.286,0,2.29,0.14v14.311c-10.728,0-18.019,7.086-18.019,18.28
		c0,11.902,8.293,18.843,18.874,18.843c7.441,0,12.874-1.983,17.738-5.665v15.441c-5.722,3.401-12.159,4.68-19.022,4.68
		c-20.881,0-34.609-12.896-34.609-32.873C96.482,34.659,110.355,21.764,129.231,21.198z M150.397,44.86h-14.013V21.764
		c5.146,0.426,10.008,1.841,14.013,4.108V44.86z"/>
	<path fill="#FBB03B" d="M199.442,73.479v13.603c-0.858,0.146-2.716,0.146-3.434,0.146c-19.592,0-31.032-5.243-31.032-23.805V35.934
		h-7.578V22.617h24.312v39.387c0,8.36,3.859,11.476,13.729,11.476H199.442z M228.474,83.826c-8.58,1.555-17.59,2.549-24.311,3.116
		V35.934h-7.725V22.617h24.457v49.59l7.578-1.419V83.826z"/>
	<path fill="#FBB03B" d="M233.045,22.617h9.581V7.169h16.591v55.26c0,7.369,3.432,9.638,8.582,9.638
		c4.434,0,8.009-1.278,11.725-3.546v15.162c-4.43,2.41-9.869,3.545-16.159,3.545c-11.012,0-20.738-5.243-20.738-20.404v-30.89
		h-9.581V22.617z M263.937,35.934V22.617h15.017v13.317H263.937z"/>
</g>
</svg>
